<?xml version="1.0" encoding="UTF-8"?>
<svg id="Layer_1" data-name="Layer 1" xmlns="http://www.w3.org/2000/svg" viewBox="0 0 2343.81 418.54">
  <defs>
    <style>.cls-1{fill:#18181B;}</style>
  </defs>
  <path class="cls-1" d="m1135.3,259.11v-62.32c0-29.38-1.25-45.92-7.09-59.24-9.16-20.79-27.88-33.72-57.89-33.72-37.48,0-59.96,23.35-69.95,47.08,0-7.91-.82-33.77-2.94-42.06h-67.44v14.13c26.68,1.69,32.08,6.27,32.08,24.99v134.92c0,18.76-4.2,24.17-32.08,25.42v12.88h103.66v-12.88c-27.45-1.25-31.21-6.66-31.21-25.42v-71.2c0-23.35,3.71-41.2,10.23-54.17,9.55-18.91,25.08-27.45,43.9-27.45,17.51,0,29.18,9.99,33.72,23.3,3.76,10.42,4.58,20.02,4.58,49.98v52.82h.05c0,39.8,7.77,58.8,29.09,65.03,5.69,1.69,12.3,2.46,20.02,2.46s17.65-1.64,21.13-2.46c.05-.05.1-.05.14-.05v-12.93c-23.73-2.46-30-15.39-30-49.11Z"/>
  <path class="cls-1" d="m2281.12,105.49c-28.73,0-47.47,22.49-54.14,41.23,0-7.91-.42-28.74-2.5-36.65h-66.63v14.16c26.65,1.67,32.07,6.25,32.07,24.99v134.93c0,18.74-4.17,24.15-32.07,25.4v12.91h105.78v-12.91c-27.9-1.25-33.32-6.66-33.32-25.4v-77.88c0-50.39,15.83-73.3,37.06-73.3,17.49,0,26.65,15.41,29.98,36.65,15.41-1.25,27.49-11.66,27.49-26.24,0-22.91-18.74-37.9-43.73-37.9Z"/>
  <path class="cls-1" d="m2060.3,298.31c-37.48,0-57.05-29.98-57.05-50.81,0-13.33,8.33-20.82,24.15-24.15l41.65-9.16c44.98-9.99,65.8-18.32,65.8-51.64s-29.98-57.47-78.29-57.47c-56.64,0-99.53,44.14-99.53,111.19s34.57,111.19,91.62,111.19c41.23,0,70.8-24.15,87.04-47.89l-7.91-7.08c-20.41,17.49-41.65,25.82-67.46,25.82Zm-61.64-86.21c0-49.56,19.16-88.29,57.05-88.29,24.15,0,38.31,18.32,38.31,38.31s-11.24,29.57-37.9,36.23l-35.81,8.75c-9.99,2.5-17.91,6.66-21.66,9.99v-5Z"/>
  <path class="cls-1" d="m1952.33,110.07h-74.13v13.33c23.32,2.5,27.49,12.49,22.07,34.57-9.99,40.81-30.4,97.45-41.23,124.94-19.99-50.39-38.73-111.61-50.81-172.83h-22.49c-12.08,61.22-36.65,139.09-49.14,172.83-11.24-28.32-30.4-80.79-43.31-132.85-4.58-18.74.83-24.99,18.32-26.65v-13.33h-88.7v14.16c14.16,1.25,22.49,9.58,26.65,23.74,17.07,61.22,44.14,133.26,62.05,174.49h28.74c3.96-8.4,8.33-19.23,12.91-31.51,11.66-31.44,24.36-72.18,34.57-106.33,13.33,48.31,33.32,107.86,46.64,137.84h28.32c18.74-42.06,46.23-115.36,62.88-174.49,4.16-14.58,12.91-22.49,26.65-23.74v-14.16Z"/>
  <path class="cls-1" d="m1522.1,105.08h-.49c-60.8,0-97.45,43.73-97.45,111.19s36.44,110.98,96.96,111.19h.49c60.8,0,97.45-43.73,97.45-111.19s-36.44-110.98-96.96-111.19Zm-.49,203.64c-39.15,0-54.97-41.65-54.97-92.45s15.83-92.45,54.97-92.45,54.97,41.65,54.97,92.45-15.83,92.45-54.97,92.45Z"/>
  <path class="cls-1" d="m814.7,105.08h-.49c-60.8,0-97.45,43.73-97.45,111.19s36.44,110.98,96.96,111.19h.49c60.8,0,97.45-43.73,97.45-111.19s-36.44-110.98-96.96-111.19Zm-.49,203.64c-39.15,0-54.97-41.65-54.97-92.45s15.83-92.45,54.97-92.45,54.97,41.65,54.97,92.45-15.83,92.45-54.97,92.45Z"/>
  <path class="cls-1" d="m586.38,105.08h-.48c-60.73,0-97.38,43.73-97.38,111.19s36.44,110.98,96.89,111.19h.49c60.8,0,97.45-43.73,97.45-111.19s-36.44-110.98-96.96-111.19Zm-.48,203.64c-39.08,0-54.9-41.65-54.9-92.45s15.83-92.45,54.9-92.45,54.97,41.65,54.97,92.45-15.83,92.45-54.97,92.45Z"/>
  <path class="cls-1" d="m367.63,105.08c-34.57,0-54.97,21.66-64.55,42.06,0-7.91-.42-28.74-2.5-37.06h-66.63v14.16c26.65,1.67,32.07,6.25,32.07,24.99v217.39c0,18.74-4.17,24.15-32.07,25.4v12.91h104.53v-12.91c-27.9-1.25-32.07-6.66-32.07-25.4v-77.04c7.08,14.99,27.49,37.9,62.47,37.9,57.47,0,86.2-44.14,86.2-111.19s-29.15-111.19-87.45-111.19Zm-8.33,199.48c-17.77,0-30.54-8.75-39.01-22.97-9.65-16.1-13.88-39.42-13.88-65.31,0-24.36,3.75-46.43,12.22-62.4,8.47-15.96,21.72-25.89,40.67-25.89,37.48,0,53.31,39.56,53.31,88.29s-15.83,88.29-53.31,88.29Z"/>
  <path class="cls-1" d="m151.11,153.45l-33.52-12.08c-31.79-11.17-47.68-28.8-47.68-52.82,0-30.54,20.2-50.32,54.14-50.32s57.19,23.67,62.33,63.65c16.73,0,27.9-10.76,27.9-30.12,0-26.17-32.62-54.55-88.91-54.55-62.74,0-97.59,38.24-97.59,83.36,0,41.23,24.08,66.63,69.62,82.94l28.39,10.34c39.56,13.74,55.87,30.05,55.87,57.96,0,30.96-26.24,54.62-63.16,54.62-41.3,0-68.78-36.58-72.67-72.67-18.88,1.32-28.32,13.33-28.32,31.86,0,33.04,43.38,61.84,99.67,61.84,62.33,0,106.13-37.83,106.13-88.98,0-42.48-24.02-67.88-72.18-85.03Z"/>
  <g>
    <path class="cls-1" d="m1374.13,259.8V21.84c-11.16,1.1-20.17.9-26.28.53-12.33-.75-34.57-3.83-40.39-4.48,0,0-4.42-.41-9.42-.8-.14-.01-.27-.02-.47-.04-.17-.01-3.79-.23-6.87-.23-48.14,0-78.72,32.42-78.72,86.39v7.48h-31.98v18.28h31.98l-.34,214.03c0,33.72-6.22,46.65-29.96,49.11v12.93c3.33.82,13.7,2.51,21.22,2.51,36.61,0,49.11-17.08,49.11-67.49v-17.56h.24v-193.53h48.19v-18.28h-48.19v-39.36h.05c.11-4.78,1.17-9.32,2.97-13.46,6.06-14.91,20.67-25.44,37.76-25.44s32.3,10.98,38.11,26.4c.1.24.18.49.27.73.23.65.47,1.3.67,1.96.35,1.11.64,2.24.87,3.39,0,.04.02.07.02.1.06.29.15.57.2.87t0,.1c.48,1.83.67,3.62.67,5.26v185.67c0,50.26,12.45,67.29,49.01,67.29,7.43,0,17.41-1.69,21.18-2.51v-12.88c-23.69-2.46-29.91-15.34-29.91-49.01Z"/>
    <path class="cls-1" d="m1297.57,17.05c.16.01.31.02.47.04.25.02.44.03.51.04-.19-.02-1-.08-.97-.08Z"/>
    <path class="cls-1" d="m1298.55,17.12c.05,0,.07,0,0,0h0Z"/>
  </g>
</svg>
